<?xml version="1.0" encoding="iso-8859-1"?>
<!-- Generator: Adobe Illustrator 15.1.0, SVG Export Plug-In . SVG Version: 6.00 Build 0)  -->
<!DOCTYPE svg PUBLIC "-//W3C//DTD SVG 1.1//EN" "http://www.w3.org/Graphics/SVG/1.1/DTD/svg11.dtd">
<svg version="1.1" id="_x38_" xmlns="http://www.w3.org/2000/svg" xmlns:xlink="http://www.w3.org/1999/xlink" x="0px" y="0px"
	 width="512px" height="512px" viewBox="0 0 512 512" style="enable-background:new 0 0 512 512;" xml:space="preserve">
<g>
	<path style="fill:#FFFFFF;" d="M218.563,354.803c7.816,40.379,13.055,65.216,18.292,84.857c5.269,19.761-1.317,32.937-11.862,38.21
		c-10.542,5.272-21.082,28.988,6.588,32.945c27.673,3.958,54.034-1.316,54.034-26.354c0-25.04,5.269-67.208,3.953-71.155
		c-1.316-3.959,1.315-19.777,1.315-19.777h10.54c0,0,2.64,15.818,1.323,19.777c-1.323,3.947,3.951,46.115,3.951,71.155
		c0,25.038,26.357,30.313,54.028,26.354c27.674-3.957,17.132-27.673,6.592-32.945c-10.544-5.273-17.134-18.449-11.864-38.21
		c5.238-19.642,10.477-44.479,18.292-84.857c-2.598,16.477,34.266,21.031,42.33,0.516c14.493-36.902-1.453-83.89-10.541-115.969
		c-22.403-79.064-50.081-65.886-51.397-129.141c1.316-50.075-17.13-67.208-6.588-75.773c14.934-12.138,8.566-32.287-7.248-34.266
		c-15.813-1.974-17.788,13.84-17.788,13.84s-8.569,0.66-26.357,0.66c-17.792,0-26.354-0.66-26.354-0.66s-1.979-15.813-17.794-13.84
		c-15.812,1.979-22.182,22.127-7.243,34.266c10.537,8.564-7.909,25.698-6.593,75.773c-1.316,63.255-31.314,49.168-45.15,90.683
		c0,0-15.375-7.99-22.635-27.354c-5.934-15.811-3.954-25.698-19.769-35.577c-19.867-12.418-64.238,7.905-60.283,40.519
		c2.285,18.872,15.043,23.863,22.728,34.588c15.861,22.143,31.843,40.695,42.496,55.345c13.61,18.717,41.421,21.439,49.325,11.552
		C210.814,303.691,218.563,354.803,218.563,354.803z"/>
	<path style="fill:#080505;" d="M273.201,49.055c0,1.642-1.33,2.969-2.967,2.969c-1.635,0-2.965-1.328-2.965-2.969
		c0-1.637,1.33-2.964,2.965-2.964C271.871,46.091,273.201,47.418,273.201,49.055z"/>
	<ellipse style="fill:#080505;" cx="313.72" cy="49.055" rx="2.964" ry="2.969"/>
	<path style="fill:#080505;" d="M290.987,59.929c-10.872,0-10.872,9.883-2.965,12.846c7.906,2.965,15.813-3.952,15.813-7.906
		C303.835,60.915,295.934,59.929,290.987,59.929z"/>
	<g>
		<path style="fill:#080505;" d="M278.621,81.53c1.89,1.132,4.162,1.866,6.472,1.867c2.105,0.002,4.262-0.631,6.034-2.167
			c1.779-1.534,3.131-3.92,3.797-7.271c0.106-0.537-0.24-1.056-0.778-1.164c-0.533-0.105-1.053,0.241-1.158,0.778
			c-0.615,3.033-1.775,4.97-3.15,6.163c-1.381,1.187-3.017,1.682-4.744,1.686c-1.883,0.002-3.843-0.621-5.454-1.586
			c-0.466-0.28-1.077-0.128-1.356,0.338C278.002,80.642,278.149,81.25,278.621,81.53z"/>
		<path style="fill:#080505;" d="M307.28,79.503c-1.604,0.971-3.573,1.592-5.456,1.588c-1.724-0.001-3.359-0.499-4.738-1.687
			c-1.379-1.195-2.544-3.127-3.152-6.165c-0.108-0.532-0.627-0.88-1.16-0.772c-0.537,0.105-0.887,0.626-0.772,1.165
			c0.664,3.347,2.016,5.733,3.792,7.267c1.772,1.539,3.93,2.171,6.031,2.169c2.313-0.004,4.586-0.735,6.475-1.865
			c0.467-0.284,0.616-0.891,0.335-1.359C308.355,79.375,307.748,79.226,307.28,79.503z"/>
	</g>
	<path style="fill:#080505;" d="M251.521,24.941c1.313-0.99,7.905-5.602,6.589-6.92c-1.319-1.318-2.971-6.59-8.24-4.939
		C244.599,14.726,246.249,23.623,251.521,24.941z"/>
	<path style="fill:#080505;" d="M328.839,23.562l8.239,4.94c0,0,6.914-6.917,1.31-10.213
		C332.793,14.996,328.839,23.562,328.839,23.562z"/>
	<path style="fill:#080505;" d="M137.77,180.457c-10.543,5.522-10.872,11.86-21.743,7.905c-10.869-3.952-6.917-29.648,14.825-31.625
		C152.599,154.761,158.522,169.587,137.77,180.457z"/>
	<path style="fill:#080505;" d="M103.806,171.456c0,2.183-1.773,3.95-3.953,3.95c-2.187,0-3.958-1.768-3.958-3.95
		c0-2.186,1.771-3.953,3.958-3.953C102.032,167.503,103.806,169.27,103.806,171.456z"/>
	<path style="fill:#080505;" d="M109.955,159.155c0,2.181-1.77,3.953-3.952,3.953c-2.189,0-3.956-1.772-3.956-3.953
		c0-2.185,1.767-3.955,3.956-3.955C108.186,155.201,109.955,156.971,109.955,159.155z"/>
	<path style="fill:#080505;" d="M120.935,150.811c0,2.181-1.768,3.95-3.95,3.95c-2.185,0-3.956-1.769-3.956-3.95
		c0-2.186,1.771-3.953,3.956-3.953C119.167,146.858,120.935,148.625,120.935,150.811z"/>
	<circle style="fill:#080505;" cx="133.235" cy="145.536" r="3.951"/>
	<path style="fill:#080505;" d="M159.59,151.688c0,2.185-1.769,3.951-3.955,3.951c-2.181,0-3.949-1.767-3.949-3.951
		c0-2.182,1.769-3.954,3.949-3.954C157.821,147.733,159.59,149.505,159.59,151.688z"/>
</g>
</svg>
